<?xml version="1.0" encoding="utf-8"?>
<!-- Generator: Adobe Illustrator 25.1.0, SVG Export Plug-In . SVG Version: 6.00 Build 0)  -->
<svg version="1.1" id="Layer_1" xmlns="http://www.w3.org/2000/svg" xmlns:xlink="http://www.w3.org/1999/xlink" x="0px" y="0px"
	 viewBox="0 0 108 107" style="enable-background:new 0 0 108 107;" xml:space="preserve">
<style type="text/css">
	.st0{opacity:0.27;fill:#FFFFFF;enable-background:new    ;}
	.st1{fill:#FFFFFF;}
</style>
<ellipse id="Ellipse_30" class="st0" cx="54" cy="53.5" rx="54" ry="53.5"/>
<path id="Icon_awesome-user-shield" class="st1" d="M77.6,54.7l-9-3.5c-0.6-0.2-1.2-0.2-1.7,0l-9,3.5c-0.8,0.3-1.4,1.1-1.4,1.9
	c0,8.7,5.4,14.7,10.4,16.7c0.6,0.2,1.2,0.2,1.7,0c4-1.6,10.4-7,10.4-16.7C79,55.8,78.4,55,77.6,54.7z M67.7,69.6V54.8l7.5,2.9
	C75,62.8,72.2,67.3,67.7,69.6z M46.5,53.5c5.5,0,10-4.5,10-10s-4.5-10-10-10s-10,4.5-10,10S41,53.5,46.5,53.5z M54,56.6
	c0-0.2,0-0.4,0.1-0.6c-0.2,0-0.4-0.1-0.6-0.1h-1.3c-3.6,1.7-7.8,1.7-11.4,0h-1.3C33.7,56,29,60.7,29,66.5c0,0,0,0,0,0v3.2
	c0,2.1,1.7,3.7,3.8,3.8h27.5c0.5,0,1-0.1,1.5-0.3C56.8,69.1,53.9,63,54,56.6z"/>
</svg>
