<?xml version="1.0" encoding="utf-8"?>
<!-- Generator: Adobe Illustrator 25.1.0, SVG Export Plug-In . SVG Version: 6.00 Build 0)  -->
<svg version="1.1" id="Layer_1" xmlns="http://www.w3.org/2000/svg" xmlns:xlink="http://www.w3.org/1999/xlink" x="0px" y="0px"
	 viewBox="0 0 108 107" style="enable-background:new 0 0 108 107;" xml:space="preserve">
<style type="text/css">
	.st0{opacity:0.27;fill:#FFFFFF;enable-background:new    ;}
	.st1{fill:#FFFFFF;}
</style>
<ellipse id="Ellipse_30" class="st0" cx="54" cy="53.5" rx="54" ry="53.5"/>
<path id="Icon_awesome-users" class="st1" d="M34,50.6c3.2,0,5.7-2.6,5.7-5.7c0-3.2-2.6-5.7-5.7-5.7s-5.7,2.6-5.7,5.7c0,0,0,0,0,0
	C28.3,48.1,30.8,50.6,34,50.6z M74,50.6c3.2,0,5.7-2.6,5.7-5.7s-2.6-5.7-5.7-5.7c-3.2,0-5.7,2.6-5.7,5.7l0,0
	C68.3,48.1,70.8,50.6,74,50.6L74,50.6z M76.9,53.5h-5.7c-1.5,0-3,0.6-4,1.7c3.7,2,6.2,5.6,6.7,9.8h5.9c1.6,0,2.9-1.3,2.9-2.9
	c0,0,0,0,0,0v-2.9C82.6,56.1,80,53.5,76.9,53.5L76.9,53.5z M54,53.5c5.5,0,10-4.5,10-10s-4.5-10-10-10s-10,4.5-10,10
	C44,49,48.5,53.5,54,53.5C54,53.5,54,53.5,54,53.5L54,53.5z M60.9,56.4h-0.7c-3.9,1.9-8.4,1.9-12.2,0h-0.7
	c-5.7,0-10.3,4.6-10.3,10.3v2.6c0,2.4,1.9,4.3,4.3,4.3h25.7c2.4,0,4.3-1.9,4.3-4.3v-2.6C71.1,61,66.5,56.4,60.9,56.4L60.9,56.4z
	 M40.9,55.2c-1.1-1.1-2.5-1.7-4-1.7h-5.7c-3.2,0-5.7,2.6-5.7,5.7v2.9c0,1.6,1.3,2.9,2.9,2.9c0,0,0,0,0,0h5.9
	C34.7,60.8,37.2,57.2,40.9,55.2L40.9,55.2z"/>
</svg>
