<?xml version="1.0" encoding="utf-8"?>
<!-- Generator: Adobe Illustrator 25.1.0, SVG Export Plug-In . SVG Version: 6.00 Build 0)  -->
<svg version="1.1" id="Layer_1" xmlns="http://www.w3.org/2000/svg" xmlns:xlink="http://www.w3.org/1999/xlink" x="0px" y="0px"
	 viewBox="0 0 108 107" style="enable-background:new 0 0 108 107;" xml:space="preserve">
<style type="text/css">
	.st0{opacity:0.27;fill:#FFFFFF;enable-background:new    ;}
	.st1{fill:#FFFFFF;}
</style>
<ellipse id="Ellipse_30" class="st0" cx="54" cy="53.5" rx="54" ry="53.5"/>
<path id="Icon_awesome-user-plus" class="st1" d="M79.3,49.5H74v-5.3c0-0.7-0.6-1.3-1.3-1.3H70c-0.7,0-1.3,0.6-1.3,1.3v5.3h-5.3
	c-0.7,0-1.3,0.6-1.3,1.3v2.7c0,0.7,0.6,1.3,1.3,1.3h5.3v5.3c0,0.7,0.6,1.3,1.3,1.3h2.7c0.7,0,1.3-0.6,1.3-1.3v-5.3h5.3
	c0.7,0,1.3-0.6,1.3-1.3v-2.7C80.7,50.1,80.1,49.5,79.3,49.5z M46,53.5c5.9,0,10.7-4.8,10.7-10.7c0-5.9-4.8-10.7-10.7-10.7
	c-5.9,0-10.7,4.8-10.7,10.7c0,0,0,0,0,0C35.3,48.7,40.1,53.5,46,53.5C46,53.5,46,53.5,46,53.5z M53.5,56.2h-1.4
	c-3.9,1.8-8.3,1.8-12.2,0h-1.4c-6.2,0-11.2,5-11.2,11.2v3.5c0,2.2,1.8,4,4,4h29.3c2.2,0,4-1.8,4-4v-3.5
	C64.7,61.2,59.7,56.2,53.5,56.2z"/>
</svg>
