<?xml version="1.0" encoding="utf-8"?>
<!-- Generator: Adobe Illustrator 25.0.0, SVG Export Plug-In . SVG Version: 6.00 Build 0)  -->
<svg version="1.1" id="Layer_1" xmlns="http://www.w3.org/2000/svg" xmlns:xlink="http://www.w3.org/1999/xlink" x="0px" y="0px"
	 viewBox="0 0 22 15" style="enable-background:new 0 0 22 15;" xml:space="preserve">
<style type="text/css">
	.st0{opacity:0.6;}
</style>
<g id="MDI_eye" class="st0">
	<path id="Path_eye" d="M11,4.5c-1.7,0-3,1.3-3,3s1.3,3,3,3s3-1.3,3-3S12.7,4.5,11,4.5 M11,12.5c-2.8,0-5-2.2-5-5s2.2-5,5-5
		s5,2.2,5,5S13.8,12.5,11,12.5 M11,0C6.1,0,1.8,3,0,7.5c2.4,6.1,9.2,9.1,15.3,6.7c3.1-1.2,5.5-3.6,6.7-6.7C20.2,3,15.9,0,11,0z"/>
</g>
</svg>
