<svg xmlns="http://www.w3.org/2000/svg" width="30" height="30" viewBox="0 0 30 30"><defs><style>.a,.b,.d{fill:none;}.a,.b{stroke:#00a6e6;}.b{stroke-linecap:round;stroke-linejoin:round;}.c{stroke:none;}</style></defs><g class="a"><rect class="c" width="30" height="30" rx="15"/><rect class="d" x="0.5" y="0.5" width="29" height="29" rx="14.5"/></g><g transform="translate(9 10)"><path class="b" d="M10.038,25.915V24.777A2.277,2.277,0,0,0,7.761,22.5H3.777A2.277,2.277,0,0,0,1.5,24.777v1.138" transform="translate(-1.5 -15.915)"/><path class="b" d="M11.3,6.777A2.277,2.277,0,1,1,9.027,4.5,2.277,2.277,0,0,1,11.3,6.777Z" transform="translate(-4.888 -4.5)"/><path class="b" d="M27,12l2.846,2.846" transform="translate(-17.846 -9.248)"/><path class="b" d="M29.846,12,27,14.846" transform="translate(-17.846 -9.248)"/></g></svg>