<svg xmlns="http://www.w3.org/2000/svg" width="17.973" height="15.977" viewBox="0 0 17.973 15.977">
  <path id="Icon_awesome-file-export" data-name="Icon awesome-file-export" d="M11.983,3.8a.747.747,0,0,0-.218-.527L8.709.218A.748.748,0,0,0,8.179,0h-.19V3.994h3.994Zm5.835,5.807L14.832,6.6a.5.5,0,0,0-.855.353V8.987h-2v2h2v2.035a.5.5,0,0,0,.855.353l2.986-3.011A.531.531,0,0,0,17.818,9.611Zm-11.827.874v-1a.5.5,0,0,1,.5-.5h5.492V4.993H7.739a.751.751,0,0,1-.749-.749V0H.749A.747.747,0,0,0,0,.749V15.228a.747.747,0,0,0,.749.749H11.234a.747.747,0,0,0,.749-.749V10.984H6.491A.5.5,0,0,1,5.991,10.485Z" fill="#707070"/>
</svg>
