<svg xmlns="http://www.w3.org/2000/svg" width="143.233" height="143.233" viewBox="0 0 143.233 143.233">
  <path id="Icon_awesome-user-circle" data-name="Icon awesome-user-circle" d="M71.617.563a71.617,71.617,0,1,0,71.617,71.617A71.6,71.6,0,0,0,71.617.563Zm0,27.723A25.412,25.412,0,1,1,46.2,53.7,25.413,25.413,0,0,1,71.617,28.285Zm0,99.339A55.337,55.337,0,0,1,29.311,107.93,32.2,32.2,0,0,1,57.755,90.661a7.066,7.066,0,0,1,2.05.318,38.234,38.234,0,0,0,11.811,1.993,38.089,38.089,0,0,0,11.811-1.993,7.066,7.066,0,0,1,2.05-.318,32.2,32.2,0,0,1,28.444,17.269A55.337,55.337,0,0,1,71.617,127.624Z" transform="translate(0 -0.563)" fill="#ff5e19"/>
</svg>
